<?xml version="1.0" encoding="UTF-8" standalone="no"?>
<!DOCTYPE svg PUBLIC "-//W3C//DTD SVG 1.1//EN"
 "http://www.w3.org/Graphics/SVG/1.1/DTD/svg11.dtd">
<!-- Generated by graphviz version 2.43.0 (0)
 -->
<!-- Title: MIN Pages: 1 -->
<svg width="898pt" height="325pt"
 viewBox="0.00 0.00 897.60 324.60" xmlns="http://www.w3.org/2000/svg" xmlns:xlink="http://www.w3.org/1999/xlink">
<g id="graph0" class="graph" transform="scale(1 1) rotate(0) translate(28.8 295.8)">
<title>MIN</title>
<text text-anchor="start" x="281" y="-251.2" font-family="Helvetica Neue, Helvetica, Arial, sans-serif" font-weight="bold" font-size="16.00">MIN — Material · Information · Nexus</text>
<text text-anchor="start" x="301" y="-240" font-family="Helvetica Neue, Helvetica, Arial, sans-serif" font-size="10.00" fill="#888888">Klassenhierarchie · v3.7.1 &#160;┃ &#160;Entity ≡ Nexus ⊔ Forma</text>
<text text-anchor="start" x="418" y="-226.8" font-family="Helvetica Neue, Helvetica, Arial, sans-serif" font-size="14.00"> </text>
<g id="clust1" class="cluster">
<title>cluster_nexus</title>
<path fill="#f4f9ff" stroke="#85c1e9" stroke-width="1.4" d="M20,-8C20,-8 398,-8 398,-8 404,-8 410,-14 410,-20 410,-20 410,-92 410,-92 410,-98 404,-104 398,-104 398,-104 20,-104 20,-104 14,-104 8,-98 8,-92 8,-92 8,-20 8,-20 8,-14 14,-8 20,-8"/>
<text text-anchor="start" x="127" y="-89.2" font-family="Helvetica Neue, Helvetica, Arial, sans-serif" font-weight="bold" font-size="11.00" fill="#1a5276">Nexus</text>
<text text-anchor="start" x="185.5" y="-88.8" font-family="Helvetica Neue, Helvetica, Arial, sans-serif" font-size="9.00" fill="#5499c7"> &#160;· &#160;das, was etwas bewirkt</text>
<text text-anchor="start" x="118" y="-75.4" font-family="Helvetica Neue, Helvetica, Arial, sans-serif" font-size="7.00" fill="#aabbcc">⊥ Object · Process · Data · Boundary &#160;┃ &#160;Agent überlappt</text>
</g>
<g id="clust2" class="cluster">
<title>cluster_forma</title>
<path fill="#fcf7ff" stroke="#bb8fce" stroke-width="1.4" d="M430,-8C430,-8 820,-8 820,-8 826,-8 832,-14 832,-20 832,-20 832,-92 832,-92 832,-98 826,-104 820,-104 820,-104 430,-104 430,-104 424,-104 418,-98 418,-92 418,-92 418,-20 418,-20 418,-14 424,-8 430,-8"/>
<text text-anchor="start" x="570" y="-89.2" font-family="Helvetica Neue, Helvetica, Arial, sans-serif" font-weight="bold" font-size="11.00" fill="#6c3483">Forma</text>
<text text-anchor="start" x="608" y="-88.8" font-family="Helvetica Neue, Helvetica, Arial, sans-serif" font-size="9.00" fill="#a569bd"> &#160;· &#160;das Regelwerk</text>
<text text-anchor="start" x="582.5" y="-75.4" font-family="Helvetica Neue, Helvetica, Arial, sans-serif" font-size="7.00" fill="#c5aacc">⊥ alle 5 paarweise disjunkt</text>
</g>
<!-- Entity -->
<g id="node1" class="node">
<title>Entity</title>
<path fill="#f0ebe3" stroke="#9c8b75" stroke-width="2" d="M440,-219C440,-219 316,-219 316,-219 311,-219 306,-214 306,-209 306,-209 306,-199 306,-199 306,-194 311,-189 316,-189 316,-189 440,-189 440,-189 445,-189 450,-194 450,-199 450,-199 450,-209 450,-209 450,-214 445,-219 440,-219"/>
<text text-anchor="start" x="359" y="-205.1" font-family="Helvetica Neue, Helvetica, Arial, sans-serif" font-weight="bold" font-size="13.00" fill="#3d3225">Entity</text>
<text text-anchor="start" x="347.5" y="-196.1" font-family="Helvetica Neue, Helvetica, Arial, sans-serif" font-size="8.00" fill="#777777">∃hasIdentifier ≥ 1</text>
</g>
<!-- Nexus -->
<g id="node2" class="node">
<title>Nexus</title>
<path fill="#d6eaf8" stroke="#2e86c1" stroke-width="1.8" d="M303,-142C303,-142 201,-142 201,-142 196,-142 191,-137 191,-132 191,-132 191,-122 191,-122 191,-117 196,-112 201,-112 201,-112 303,-112 303,-112 308,-112 313,-117 313,-122 313,-122 313,-132 313,-132 313,-137 308,-142 303,-142"/>
<text text-anchor="start" x="233.5" y="-128.4" font-family="Helvetica Neue, Helvetica, Arial, sans-serif" font-weight="bold" font-size="12.00" fill="#1a3c5e">Nexus</text>
<text text-anchor="start" x="215.5" y="-119.6" font-family="Helvetica Neue, Helvetica, Arial, sans-serif" font-size="8.00" fill="#666666">kausale Wirksamkeit</text>
</g>
<!-- Entity&#45;&gt;Nexus -->
<g id="edge1" class="edge">
<title>Entity&#45;&gt;Nexus</title>
<path fill="none" stroke="#2e86c1" stroke-width="1.8" d="M354.3,-188.89C333.36,-176.43 302.77,-158.22 280.5,-144.96"/>
<polygon fill="#2e86c1" stroke="#2e86c1" stroke-width="1.8" points="281.3,-143.2 275.59,-142.04 279.33,-146.51 281.3,-143.2"/>
</g>
<!-- Forma -->
<g id="node8" class="node">
<title>Forma</title>
<path fill="#e8daef" stroke="#7d3c98" stroke-width="1.8" d="M634,-142C634,-142 532,-142 532,-142 527,-142 522,-137 522,-132 522,-132 522,-122 522,-122 522,-117 527,-112 532,-112 532,-112 634,-112 634,-112 639,-112 644,-117 644,-122 644,-122 644,-132 644,-132 644,-137 639,-142 634,-142"/>
<text text-anchor="start" x="564.5" y="-128.4" font-family="Helvetica Neue, Helvetica, Arial, sans-serif" font-weight="bold" font-size="12.00" fill="#4a235a">Forma</text>
<text text-anchor="start" x="540" y="-119.6" font-family="Helvetica Neue, Helvetica, Arial, sans-serif" font-size="8.00" fill="#666666">konstitutive Bestimmung</text>
</g>
<!-- Entity&#45;&gt;Forma -->
<g id="edge2" class="edge">
<title>Entity&#45;&gt;Forma</title>
<path fill="none" stroke="#7d3c98" stroke-width="1.8" d="M416.56,-188.89C451.49,-176.11 502.92,-157.3 539.35,-143.97"/>
<polygon fill="#7d3c98" stroke="#7d3c98" stroke-width="1.8" points="540.11,-145.74 544.61,-142.04 538.79,-142.13 540.11,-145.74"/>
</g>
<!-- Object -->
<g id="node3" class="node">
<title>Object</title>
<path fill="#d5f5e3" stroke="#28b463" stroke-width="1.5" d="M386,-52C386,-52 352,-52 352,-52 347,-52 342,-47 342,-42 342,-42 342,-32 342,-32 342,-27 347,-22 352,-22 352,-22 386,-22 386,-22 391,-22 396,-27 396,-32 396,-32 396,-42 396,-42 396,-47 391,-52 386,-52"/>
<text text-anchor="start" x="352" y="-35.2" font-family="Helvetica Neue, Helvetica, Arial, sans-serif" font-weight="bold" font-size="11.00" fill="#186a3b">Object</text>
</g>
<!-- Nexus&#45;&gt;Object -->
<g id="edge3" class="edge">
<title>Nexus&#45;&gt;Object</title>
<path fill="none" stroke="#28b463" stroke-width="1.2" d="M313.02,-114.33C319.45,-111.58 325.6,-108.19 331,-104 346.35,-92.09 356.6,-72.1 362.54,-57.24"/>
<polygon fill="#28b463" stroke="#28b463" stroke-width="1.2" points="364.37,-57.84 364.54,-52.02 360.78,-56.47 364.37,-57.84"/>
</g>
<!-- Process -->
<g id="node4" class="node">
<title>Process</title>
<path fill="#d5f5e3" stroke="#28b463" stroke-width="1.5" d="M309.5,-52C309.5,-52 272.5,-52 272.5,-52 267.5,-52 262.5,-47 262.5,-42 262.5,-42 262.5,-32 262.5,-32 262.5,-27 267.5,-22 272.5,-22 272.5,-22 309.5,-22 309.5,-22 314.5,-22 319.5,-27 319.5,-32 319.5,-32 319.5,-42 319.5,-42 319.5,-47 314.5,-52 309.5,-52"/>
<text text-anchor="start" x="269.5" y="-35.2" font-family="Helvetica Neue, Helvetica, Arial, sans-serif" font-weight="bold" font-size="11.00" fill="#186a3b">Process</text>
</g>
<!-- Nexus&#45;&gt;Process -->
<g id="edge4" class="edge">
<title>Nexus&#45;&gt;Process</title>
<path fill="none" stroke="#28b463" stroke-width="1.2" d="M258.27,-111.86C264.8,-97.11 275.1,-73.87 282.4,-57.41"/>
<polygon fill="#28b463" stroke="#28b463" stroke-width="1.2" points="284.28,-57.91 284.75,-52.1 280.76,-56.35 284.28,-57.91"/>
</g>
<!-- Data -->
<g id="node5" class="node">
<title>Data</title>
<path fill="#d5f5e3" stroke="#28b463" stroke-width="1.5" d="M230,-52C230,-52 196,-52 196,-52 191,-52 186,-47 186,-42 186,-42 186,-32 186,-32 186,-27 191,-22 196,-22 196,-22 230,-22 230,-22 235,-22 240,-27 240,-32 240,-32 240,-42 240,-42 240,-47 235,-52 230,-52"/>
<text text-anchor="start" x="200.5" y="-35.2" font-family="Helvetica Neue, Helvetica, Arial, sans-serif" font-weight="bold" font-size="11.00" fill="#186a3b">Data</text>
</g>
<!-- Nexus&#45;&gt;Data -->
<g id="edge5" class="edge">
<title>Nexus&#45;&gt;Data</title>
<path fill="none" stroke="#28b463" stroke-width="1.2" d="M245.73,-111.86C239.2,-97.11 228.9,-73.87 221.6,-57.41"/>
<polygon fill="#28b463" stroke="#28b463" stroke-width="1.2" points="223.24,-56.35 219.25,-52.1 219.72,-57.91 223.24,-56.35"/>
</g>
<!-- Agent -->
<g id="node6" class="node">
<title>Agent</title>
<path fill="#fdebd0" stroke="#e67e22" stroke-width="1.6" stroke-dasharray="5,2" d="M154,-52C154,-52 120,-52 120,-52 115,-52 110,-47 110,-42 110,-42 110,-32 110,-32 110,-27 115,-22 120,-22 120,-22 154,-22 154,-22 159,-22 164,-27 164,-32 164,-32 164,-42 164,-42 164,-47 159,-52 154,-52"/>
<text text-anchor="start" x="121.5" y="-35.2" font-family="Helvetica Neue, Helvetica, Arial, sans-serif" font-weight="bold" font-size="11.00" fill="#7e4a12">Agent</text>
</g>
<!-- Nexus&#45;&gt;Agent -->
<g id="edge6" class="edge">
<title>Nexus&#45;&gt;Agent</title>
<path fill="none" stroke="#e67e22" stroke-width="1.3" stroke-dasharray="5,2" d="M190.96,-113.48C185.26,-110.89 179.82,-107.77 175,-104 159.78,-92.11 149.56,-72.3 143.59,-57.48"/>
<polygon fill="#e67e22" stroke="#e67e22" stroke-width="1.3" points="145.35,-56.71 141.58,-52.27 141.76,-58.1 145.35,-56.71"/>
</g>
<!-- Boundary -->
<g id="node7" class="node">
<title>Boundary</title>
<path fill="#d5f5e3" stroke="#28b463" stroke-width="1.5" d="M78,-52C78,-52 32,-52 32,-52 27,-52 22,-47 22,-42 22,-42 22,-32 22,-32 22,-27 27,-22 32,-22 32,-22 78,-22 78,-22 83,-22 88,-27 88,-32 88,-32 88,-42 88,-42 88,-47 83,-52 78,-52"/>
<text text-anchor="start" x="29" y="-35.2" font-family="Helvetica Neue, Helvetica, Arial, sans-serif" font-weight="bold" font-size="11.00" fill="#186a3b">Boundary</text>
</g>
<!-- Nexus&#45;&gt;Boundary -->
<g id="edge7" class="edge">
<title>Nexus&#45;&gt;Boundary</title>
<path fill="none" stroke="#28b463" stroke-width="1.2" d="M190.83,-122.27C155.11,-119.13 114.15,-113.56 99,-104 81.78,-93.14 69.77,-72.81 62.7,-57.57"/>
<polygon fill="#28b463" stroke="#28b463" stroke-width="1.2" points="64.32,-56.46 60.32,-52.21 60.8,-58.02 64.32,-56.46"/>
</g>
<!-- Lex -->
<g id="node9" class="node">
<title>Lex</title>
<path fill="#f0e6f6" stroke="#8e44ad" stroke-width="1.5" d="M808,-52C808,-52 774,-52 774,-52 769,-52 764,-47 764,-42 764,-42 764,-32 764,-32 764,-27 769,-22 774,-22 774,-22 808,-22 808,-22 813,-22 818,-27 818,-32 818,-32 818,-42 818,-42 818,-47 813,-52 808,-52"/>
<text text-anchor="start" x="781.5" y="-35.2" font-family="Helvetica Neue, Helvetica, Arial, sans-serif" font-weight="bold" font-size="11.00" fill="#4a235a">Lex</text>
</g>
<!-- Forma&#45;&gt;Lex -->
<g id="edge8" class="edge">
<title>Forma&#45;&gt;Lex</title>
<path fill="none" stroke="#8e44ad" stroke-width="1.2" d="M644.09,-123.75C685.4,-121.18 735.49,-115.69 753,-104 769.26,-93.15 779.41,-72.82 785.09,-57.58"/>
<polygon fill="#8e44ad" stroke="#8e44ad" stroke-width="1.2" points="786.96,-58.05 786.98,-52.22 783.33,-56.76 786.96,-58.05"/>
</g>
<!-- Structura -->
<g id="node10" class="node">
<title>Structura</title>
<path fill="#f0e6f6" stroke="#8e44ad" stroke-width="1.5" d="M732,-52C732,-52 688,-52 688,-52 683,-52 678,-47 678,-42 678,-42 678,-32 678,-32 678,-27 683,-22 688,-22 688,-22 732,-22 732,-22 737,-22 742,-27 742,-32 742,-32 742,-42 742,-42 742,-47 737,-52 732,-52"/>
<text text-anchor="start" x="685" y="-35.2" font-family="Helvetica Neue, Helvetica, Arial, sans-serif" font-weight="bold" font-size="11.00" fill="#4a235a">Structura</text>
</g>
<!-- Forma&#45;&gt;Structura -->
<g id="edge9" class="edge">
<title>Forma&#45;&gt;Structura</title>
<path fill="none" stroke="#8e44ad" stroke-width="1.2" d="M644.16,-115.74C652.28,-112.77 660.15,-108.94 667,-104 683.3,-92.25 695.06,-72.24 702.11,-57.33"/>
<polygon fill="#8e44ad" stroke="#8e44ad" stroke-width="1.2" points="703.97,-57.89 704.5,-52.09 700.47,-56.29 703.97,-57.89"/>
</g>
<!-- Possibile -->
<g id="node11" class="node">
<title>Possibile</title>
<path fill="#f0e6f6" stroke="#8e44ad" stroke-width="1.5" d="M645.5,-52C645.5,-52 602.5,-52 602.5,-52 597.5,-52 592.5,-47 592.5,-42 592.5,-42 592.5,-32 592.5,-32 592.5,-27 597.5,-22 602.5,-22 602.5,-22 645.5,-22 645.5,-22 650.5,-22 655.5,-27 655.5,-32 655.5,-32 655.5,-42 655.5,-42 655.5,-47 650.5,-52 645.5,-52"/>
<text text-anchor="start" x="599.5" y="-35.2" font-family="Helvetica Neue, Helvetica, Arial, sans-serif" font-weight="bold" font-size="11.00" fill="#4a235a">Possibile</text>
</g>
<!-- Forma&#45;&gt;Possibile -->
<g id="edge10" class="edge">
<title>Forma&#45;&gt;Possibile</title>
<path fill="none" stroke="#8e44ad" stroke-width="1.2" d="M589.59,-111.86C596.46,-97.11 607.29,-73.87 614.96,-57.41"/>
<polygon fill="#8e44ad" stroke="#8e44ad" stroke-width="1.2" points="616.85,-57.9 617.43,-52.1 613.36,-56.28 616.85,-57.9"/>
</g>
<!-- Norma -->
<g id="node12" class="node">
<title>Norma</title>
<path fill="#f0e6f6" stroke="#8e44ad" stroke-width="1.5" d="M560,-52C560,-52 526,-52 526,-52 521,-52 516,-47 516,-42 516,-42 516,-32 516,-32 516,-27 521,-22 526,-22 526,-22 560,-22 560,-22 565,-22 570,-27 570,-32 570,-32 570,-42 570,-42 570,-47 565,-52 560,-52"/>
<text text-anchor="start" x="525" y="-35.2" font-family="Helvetica Neue, Helvetica, Arial, sans-serif" font-weight="bold" font-size="11.00" fill="#4a235a">Norma</text>
</g>
<!-- Forma&#45;&gt;Norma -->
<g id="edge11" class="edge">
<title>Forma&#45;&gt;Norma</title>
<path fill="none" stroke="#8e44ad" stroke-width="1.2" d="M576.57,-111.86C569.87,-97.11 559.31,-73.87 551.82,-57.41"/>
<polygon fill="#8e44ad" stroke="#8e44ad" stroke-width="1.2" points="553.44,-56.31 549.41,-52.1 549.93,-57.91 553.44,-56.31"/>
</g>
<!-- Institutio -->
<g id="node13" class="node">
<title>Institutio</title>
<path fill="#f0e6f6" stroke="#8e44ad" stroke-width="1.5" d="M483.5,-52C483.5,-52 442.5,-52 442.5,-52 437.5,-52 432.5,-47 432.5,-42 432.5,-42 432.5,-32 432.5,-32 432.5,-27 437.5,-22 442.5,-22 442.5,-22 483.5,-22 483.5,-22 488.5,-22 493.5,-27 493.5,-32 493.5,-32 493.5,-42 493.5,-42 493.5,-47 488.5,-52 483.5,-52"/>
<text text-anchor="start" x="439.5" y="-35.2" font-family="Helvetica Neue, Helvetica, Arial, sans-serif" font-weight="bold" font-size="11.00" fill="#4a235a">Institutio</text>
</g>
<!-- Forma&#45;&gt;Institutio -->
<g id="edge12" class="edge">
<title>Forma&#45;&gt;Institutio</title>
<path fill="none" stroke="#8e44ad" stroke-width="1.2" d="M521.74,-113.5C515.78,-110.91 510.08,-107.78 505,-104 488.99,-92.09 477.52,-72.1 470.65,-57.24"/>
<polygon fill="#8e44ad" stroke="#8e44ad" stroke-width="1.2" points="472.33,-56.26 468.33,-52.02 468.81,-57.83 472.33,-56.26"/>
</g>
</g>
</svg>
