<?xml version="1.0" encoding="UTF-8" standalone="no"?>
<!DOCTYPE svg PUBLIC "-//W3C//DTD SVG 1.1//EN"
 "http://www.w3.org/Graphics/SVG/1.1/DTD/svg11.dtd">
<!-- Generated by graphviz version 2.43.0 (0)
 -->
<!-- Title: MIN Pages: 1 -->
<svg width="974pt" height="325pt"
 viewBox="0.00 0.00 973.60 324.60" xmlns="http://www.w3.org/2000/svg" xmlns:xlink="http://www.w3.org/1999/xlink">
<g id="graph0" class="graph" transform="scale(1 1) rotate(0) translate(28.8 295.8)">
<title>MIN</title>
<text text-anchor="start" x="319" y="-251.2" font-family="Helvetica Neue, Helvetica, Arial, sans-serif" font-weight="bold" font-size="16.00">MIN — Material · Information · Nexus</text>
<text text-anchor="start" x="338.5" y="-240" font-family="Helvetica Neue, Helvetica, Arial, sans-serif" font-size="10.00" fill="#888888">Klassenhierarchie · v3.3.0 &#160;┃ &#160;Entity ≡ Nexus ⊔ Forma</text>
<text text-anchor="start" x="456" y="-226.8" font-family="Helvetica Neue, Helvetica, Arial, sans-serif" font-size="14.00"> </text>
<g id="clust1" class="cluster">
<title>cluster_nexus</title>
<path fill="#f4f9ff" stroke="#85c1e9" stroke-width="1.4" d="M20,-8C20,-8 398,-8 398,-8 404,-8 410,-14 410,-20 410,-20 410,-92 410,-92 410,-98 404,-104 398,-104 398,-104 20,-104 20,-104 14,-104 8,-98 8,-92 8,-92 8,-20 8,-20 8,-14 14,-8 20,-8"/>
<text text-anchor="start" x="128" y="-89.2" font-family="Helvetica Neue, Helvetica, Arial, sans-serif" font-weight="bold" font-size="11.00" fill="#1a5276">Nexus</text>
<text text-anchor="start" x="186.5" y="-88.8" font-family="Helvetica Neue, Helvetica, Arial, sans-serif" font-size="9.00" fill="#5499c7"> &#160;· &#160;das, was etwas bewirkt</text>
<text text-anchor="start" x="119" y="-75.4" font-family="Helvetica Neue, Helvetica, Arial, sans-serif" font-size="7.00" fill="#aabbcc">⊥ Object · Process · Data · Boundary &#160;┃ &#160;Agent überlappt</text>
</g>
<g id="clust2" class="cluster">
<title>cluster_forma</title>
<path fill="#fcf7ff" stroke="#bb8fce" stroke-width="1.4" d="M430,-8C430,-8 896,-8 896,-8 902,-8 908,-14 908,-20 908,-20 908,-92 908,-92 908,-98 902,-104 896,-104 896,-104 430,-104 430,-104 424,-104 418,-98 418,-92 418,-92 418,-20 418,-20 418,-14 424,-8 430,-8"/>
<text text-anchor="start" x="608" y="-89.2" font-family="Helvetica Neue, Helvetica, Arial, sans-serif" font-weight="bold" font-size="11.00" fill="#6c3483">Forma</text>
<text text-anchor="start" x="646" y="-88.8" font-family="Helvetica Neue, Helvetica, Arial, sans-serif" font-size="9.00" fill="#a569bd"> &#160;· &#160;das Regelwerk</text>
<text text-anchor="start" x="613.5" y="-75.4" font-family="Helvetica Neue, Helvetica, Arial, sans-serif" font-size="7.00" fill="#c5aacc">⊥ alle sechs paarweise disjunkt</text>
</g>
<!-- Entity -->
<g id="node1" class="node">
<title>Entity</title>
<path fill="#f0ebe3" stroke="#9c8b75" stroke-width="2" d="M478,-219C478,-219 354,-219 354,-219 349,-219 344,-214 344,-209 344,-209 344,-199 344,-199 344,-194 349,-189 354,-189 354,-189 478,-189 478,-189 483,-189 488,-194 488,-199 488,-199 488,-209 488,-209 488,-214 483,-219 478,-219"/>
<text text-anchor="start" x="397" y="-205.1" font-family="Helvetica Neue, Helvetica, Arial, sans-serif" font-weight="bold" font-size="13.00" fill="#3d3225">Entity</text>
<text text-anchor="start" x="384.5" y="-196.1" font-family="Helvetica Neue, Helvetica, Arial, sans-serif" font-size="8.00" fill="#777777">∃hasIdentifier ≥ 1</text>
</g>
<!-- Nexus -->
<g id="node2" class="node">
<title>Nexus</title>
<path fill="#d6eaf8" stroke="#2e86c1" stroke-width="1.8" d="M303,-142C303,-142 201,-142 201,-142 196,-142 191,-137 191,-132 191,-132 191,-122 191,-122 191,-117 196,-112 201,-112 201,-112 303,-112 303,-112 308,-112 313,-117 313,-122 313,-122 313,-132 313,-132 313,-137 308,-142 303,-142"/>
<text text-anchor="start" x="233.5" y="-128.4" font-family="Helvetica Neue, Helvetica, Arial, sans-serif" font-weight="bold" font-size="12.00" fill="#1a3c5e">Nexus</text>
<text text-anchor="start" x="215.5" y="-119.6" font-family="Helvetica Neue, Helvetica, Arial, sans-serif" font-size="8.00" fill="#666666">kausale Wirksamkeit</text>
</g>
<!-- Entity&#45;&gt;Nexus -->
<g id="edge1" class="edge">
<title>Entity&#45;&gt;Nexus</title>
<path fill="none" stroke="#2e86c1" stroke-width="1.8" d="M385.15,-188.89C357.55,-176.27 317.07,-157.76 288,-144.46"/>
<polygon fill="#2e86c1" stroke="#2e86c1" stroke-width="1.8" points="288.51,-142.58 282.71,-142.04 286.91,-146.08 288.51,-142.58"/>
</g>
<!-- Forma -->
<g id="node8" class="node">
<title>Forma</title>
<path fill="#e8daef" stroke="#7d3c98" stroke-width="1.8" d="M670,-142C670,-142 568,-142 568,-142 563,-142 558,-137 558,-132 558,-132 558,-122 558,-122 558,-117 563,-112 568,-112 568,-112 670,-112 670,-112 675,-112 680,-117 680,-122 680,-122 680,-132 680,-132 680,-137 675,-142 670,-142"/>
<text text-anchor="start" x="600.5" y="-128.4" font-family="Helvetica Neue, Helvetica, Arial, sans-serif" font-weight="bold" font-size="12.00" fill="#4a235a">Forma</text>
<text text-anchor="start" x="576" y="-119.6" font-family="Helvetica Neue, Helvetica, Arial, sans-serif" font-size="8.00" fill="#666666">konstitutive Bestimmung</text>
</g>
<!-- Entity&#45;&gt;Forma -->
<g id="edge2" class="edge">
<title>Entity&#45;&gt;Forma</title>
<path fill="none" stroke="#7d3c98" stroke-width="1.8" d="M454.18,-188.89C488.77,-176.11 539.7,-157.3 575.78,-143.97"/>
<polygon fill="#7d3c98" stroke="#7d3c98" stroke-width="1.8" points="576.5,-145.76 580.99,-142.04 575.16,-142.14 576.5,-145.76"/>
</g>
<!-- Object -->
<g id="node3" class="node">
<title>Object</title>
<path fill="#d5f5e3" stroke="#28b463" stroke-width="1.5" d="M386,-52C386,-52 352,-52 352,-52 347,-52 342,-47 342,-42 342,-42 342,-32 342,-32 342,-27 347,-22 352,-22 352,-22 386,-22 386,-22 391,-22 396,-27 396,-32 396,-32 396,-42 396,-42 396,-47 391,-52 386,-52"/>
<text text-anchor="start" x="352" y="-35.2" font-family="Helvetica Neue, Helvetica, Arial, sans-serif" font-weight="bold" font-size="11.00" fill="#186a3b">Object</text>
</g>
<!-- Nexus&#45;&gt;Object -->
<g id="edge3" class="edge">
<title>Nexus&#45;&gt;Object</title>
<path fill="none" stroke="#28b463" stroke-width="1.2" d="M313.02,-114.33C319.45,-111.58 325.6,-108.19 331,-104 346.35,-92.09 356.6,-72.1 362.54,-57.24"/>
<polygon fill="#28b463" stroke="#28b463" stroke-width="1.2" points="364.37,-57.84 364.54,-52.02 360.78,-56.47 364.37,-57.84"/>
</g>
<!-- Process -->
<g id="node4" class="node">
<title>Process</title>
<path fill="#d5f5e3" stroke="#28b463" stroke-width="1.5" d="M309.5,-52C309.5,-52 272.5,-52 272.5,-52 267.5,-52 262.5,-47 262.5,-42 262.5,-42 262.5,-32 262.5,-32 262.5,-27 267.5,-22 272.5,-22 272.5,-22 309.5,-22 309.5,-22 314.5,-22 319.5,-27 319.5,-32 319.5,-32 319.5,-42 319.5,-42 319.5,-47 314.5,-52 309.5,-52"/>
<text text-anchor="start" x="269.5" y="-35.2" font-family="Helvetica Neue, Helvetica, Arial, sans-serif" font-weight="bold" font-size="11.00" fill="#186a3b">Process</text>
</g>
<!-- Nexus&#45;&gt;Process -->
<g id="edge4" class="edge">
<title>Nexus&#45;&gt;Process</title>
<path fill="none" stroke="#28b463" stroke-width="1.2" d="M258.27,-111.86C264.8,-97.11 275.1,-73.87 282.4,-57.41"/>
<polygon fill="#28b463" stroke="#28b463" stroke-width="1.2" points="284.28,-57.91 284.75,-52.1 280.76,-56.35 284.28,-57.91"/>
</g>
<!-- Data -->
<g id="node5" class="node">
<title>Data</title>
<path fill="#d5f5e3" stroke="#28b463" stroke-width="1.5" d="M230,-52C230,-52 196,-52 196,-52 191,-52 186,-47 186,-42 186,-42 186,-32 186,-32 186,-27 191,-22 196,-22 196,-22 230,-22 230,-22 235,-22 240,-27 240,-32 240,-32 240,-42 240,-42 240,-47 235,-52 230,-52"/>
<text text-anchor="start" x="200.5" y="-35.2" font-family="Helvetica Neue, Helvetica, Arial, sans-serif" font-weight="bold" font-size="11.00" fill="#186a3b">Data</text>
</g>
<!-- Nexus&#45;&gt;Data -->
<g id="edge5" class="edge">
<title>Nexus&#45;&gt;Data</title>
<path fill="none" stroke="#28b463" stroke-width="1.2" d="M245.73,-111.86C239.2,-97.11 228.9,-73.87 221.6,-57.41"/>
<polygon fill="#28b463" stroke="#28b463" stroke-width="1.2" points="223.24,-56.35 219.25,-52.1 219.72,-57.91 223.24,-56.35"/>
</g>
<!-- Boundary -->
<g id="node6" class="node">
<title>Boundary</title>
<path fill="#d5f5e3" stroke="#28b463" stroke-width="1.5" d="M154,-52C154,-52 108,-52 108,-52 103,-52 98,-47 98,-42 98,-42 98,-32 98,-32 98,-27 103,-22 108,-22 108,-22 154,-22 154,-22 159,-22 164,-27 164,-32 164,-32 164,-42 164,-42 164,-47 159,-52 154,-52"/>
<text text-anchor="start" x="105" y="-35.2" font-family="Helvetica Neue, Helvetica, Arial, sans-serif" font-weight="bold" font-size="11.00" fill="#186a3b">Boundary</text>
</g>
<!-- Nexus&#45;&gt;Boundary -->
<g id="edge6" class="edge">
<title>Nexus&#45;&gt;Boundary</title>
<path fill="none" stroke="#28b463" stroke-width="1.2" d="M190.82,-112.97C185.21,-110.49 179.83,-107.52 175,-104 158.65,-92.07 146.58,-72.09 139.25,-57.23"/>
<polygon fill="#28b463" stroke="#28b463" stroke-width="1.2" points="140.87,-56.15 136.77,-52.01 137.39,-57.81 140.87,-56.15"/>
</g>
<!-- Agent -->
<g id="node7" class="node">
<title>Agent</title>
<path fill="#fdebd0" stroke="#e67e22" stroke-width="1.6" stroke-dasharray="5,2" d="M66,-52C66,-52 32,-52 32,-52 27,-52 22,-47 22,-42 22,-42 22,-32 22,-32 22,-27 27,-22 32,-22 32,-22 66,-22 66,-22 71,-22 76,-27 76,-32 76,-32 76,-42 76,-42 76,-47 71,-52 66,-52"/>
<text text-anchor="start" x="33.5" y="-35.2" font-family="Helvetica Neue, Helvetica, Arial, sans-serif" font-weight="bold" font-size="11.00" fill="#7e4a12">Agent</text>
</g>
<!-- Nexus&#45;&gt;Agent -->
<g id="edge7" class="edge">
<title>Nexus&#45;&gt;Agent</title>
<path fill="none" stroke="#e67e22" stroke-width="1.3" stroke-dasharray="5,2" d="M190.99,-123.45C151.23,-120.75 103.74,-115.22 87,-104 70.76,-93.12 60.61,-72.79 54.92,-57.56"/>
<polygon fill="#e67e22" stroke="#e67e22" stroke-width="1.3" points="56.68,-56.75 53.03,-52.21 53.05,-58.03 56.68,-56.75"/>
</g>
<!-- Lex -->
<g id="node9" class="node">
<title>Lex</title>
<path fill="#f0e6f6" stroke="#8e44ad" stroke-width="1.5" d="M884,-52C884,-52 850,-52 850,-52 845,-52 840,-47 840,-42 840,-42 840,-32 840,-32 840,-27 845,-22 850,-22 850,-22 884,-22 884,-22 889,-22 894,-27 894,-32 894,-32 894,-42 894,-42 894,-47 889,-52 884,-52"/>
<text text-anchor="start" x="857.5" y="-35.2" font-family="Helvetica Neue, Helvetica, Arial, sans-serif" font-weight="bold" font-size="11.00" fill="#4a235a">Lex</text>
</g>
<!-- Forma&#45;&gt;Lex -->
<g id="edge8" class="edge">
<title>Forma&#45;&gt;Lex</title>
<path fill="none" stroke="#8e44ad" stroke-width="1.2" d="M680.15,-125.66C733.22,-124.28 805.18,-119.48 829,-104 845.49,-93.28 855.64,-72.74 861.26,-57.41"/>
<polygon fill="#8e44ad" stroke="#8e44ad" stroke-width="1.2" points="863.14,-57.85 863.13,-52.02 859.51,-56.59 863.14,-57.85"/>
</g>
<!-- Structura -->
<g id="node10" class="node">
<title>Structura</title>
<path fill="#f0e6f6" stroke="#8e44ad" stroke-width="1.5" d="M808,-52C808,-52 764,-52 764,-52 759,-52 754,-47 754,-42 754,-42 754,-32 754,-32 754,-27 759,-22 764,-22 764,-22 808,-22 808,-22 813,-22 818,-27 818,-32 818,-32 818,-42 818,-42 818,-47 813,-52 808,-52"/>
<text text-anchor="start" x="761" y="-35.2" font-family="Helvetica Neue, Helvetica, Arial, sans-serif" font-weight="bold" font-size="11.00" fill="#4a235a">Structura</text>
</g>
<!-- Forma&#45;&gt;Structura -->
<g id="edge9" class="edge">
<title>Forma&#45;&gt;Structura</title>
<path fill="none" stroke="#8e44ad" stroke-width="1.2" d="M680.2,-119.74C705.97,-116.17 732.42,-111 743,-104 759.86,-92.84 771.59,-72.56 778.49,-57.41"/>
<polygon fill="#8e44ad" stroke="#8e44ad" stroke-width="1.2" points="780.38,-57.9 780.81,-52.09 776.85,-56.36 780.38,-57.9"/>
</g>
<!-- Possibile -->
<g id="node11" class="node">
<title>Possibile</title>
<path fill="#f0e6f6" stroke="#8e44ad" stroke-width="1.5" d="M721.5,-52C721.5,-52 678.5,-52 678.5,-52 673.5,-52 668.5,-47 668.5,-42 668.5,-42 668.5,-32 668.5,-32 668.5,-27 673.5,-22 678.5,-22 678.5,-22 721.5,-22 721.5,-22 726.5,-22 731.5,-27 731.5,-32 731.5,-32 731.5,-42 731.5,-42 731.5,-47 726.5,-52 721.5,-52"/>
<text text-anchor="start" x="675.5" y="-35.2" font-family="Helvetica Neue, Helvetica, Arial, sans-serif" font-weight="bold" font-size="11.00" fill="#4a235a">Possibile</text>
</g>
<!-- Forma&#45;&gt;Possibile -->
<g id="edge10" class="edge">
<title>Forma&#45;&gt;Possibile</title>
<path fill="none" stroke="#8e44ad" stroke-width="1.2" d="M647.06,-111.82C650.6,-109.45 654.01,-106.83 657,-104 671.23,-90.5 683.01,-71.42 690.62,-57.24"/>
<polygon fill="#8e44ad" stroke="#8e44ad" stroke-width="1.2" points="692.38,-58.03 693.23,-52.26 688.97,-56.24 692.38,-58.03"/>
</g>
<!-- Norma -->
<g id="node12" class="node">
<title>Norma</title>
<path fill="#f0e6f6" stroke="#8e44ad" stroke-width="1.5" d="M636,-52C636,-52 602,-52 602,-52 597,-52 592,-47 592,-42 592,-42 592,-32 592,-32 592,-27 597,-22 602,-22 602,-22 636,-22 636,-22 641,-22 646,-27 646,-32 646,-32 646,-42 646,-42 646,-47 641,-52 636,-52"/>
<text text-anchor="start" x="601" y="-35.2" font-family="Helvetica Neue, Helvetica, Arial, sans-serif" font-weight="bold" font-size="11.00" fill="#4a235a">Norma</text>
</g>
<!-- Forma&#45;&gt;Norma -->
<g id="edge11" class="edge">
<title>Forma&#45;&gt;Norma</title>
<path fill="none" stroke="#8e44ad" stroke-width="1.2" d="M619,-111.86C619,-97.24 619,-74.28 619,-57.84"/>
<polygon fill="#8e44ad" stroke="#8e44ad" stroke-width="1.2" points="620.93,-57.6 619,-52.1 617.08,-57.6 620.93,-57.6"/>
</g>
<!-- Institutio -->
<g id="node13" class="node">
<title>Institutio</title>
<path fill="#f0e6f6" stroke="#8e44ad" stroke-width="1.5" d="M559.5,-52C559.5,-52 518.5,-52 518.5,-52 513.5,-52 508.5,-47 508.5,-42 508.5,-42 508.5,-32 508.5,-32 508.5,-27 513.5,-22 518.5,-22 518.5,-22 559.5,-22 559.5,-22 564.5,-22 569.5,-27 569.5,-32 569.5,-32 569.5,-42 569.5,-42 569.5,-47 564.5,-52 559.5,-52"/>
<text text-anchor="start" x="515.5" y="-35.2" font-family="Helvetica Neue, Helvetica, Arial, sans-serif" font-weight="bold" font-size="11.00" fill="#4a235a">Institutio</text>
</g>
<!-- Forma&#45;&gt;Institutio -->
<g id="edge12" class="edge">
<title>Forma&#45;&gt;Institutio</title>
<path fill="none" stroke="#8e44ad" stroke-width="1.2" d="M590.91,-111.85C587.38,-109.48 583.97,-106.85 581,-104 566.86,-90.44 555.31,-71.2 547.93,-56.99"/>
<polygon fill="#8e44ad" stroke="#8e44ad" stroke-width="1.2" points="549.61,-56.04 545.41,-52 546.18,-57.78 549.61,-56.04"/>
</g>
<!-- Typus -->
<g id="node14" class="node">
<title>Typus</title>
<path fill="#f0e6f6" stroke="#8e44ad" stroke-width="1.5" d="M476,-52C476,-52 442,-52 442,-52 437,-52 432,-47 432,-42 432,-42 432,-32 432,-32 432,-27 437,-22 442,-22 442,-22 476,-22 476,-22 481,-22 486,-27 486,-32 486,-32 486,-42 486,-42 486,-47 481,-52 476,-52"/>
<text text-anchor="start" x="443" y="-35.2" font-family="Helvetica Neue, Helvetica, Arial, sans-serif" font-weight="bold" font-size="11.00" fill="#4a235a">Typus</text>
</g>
<!-- Forma&#45;&gt;Typus -->
<g id="edge13" class="edge">
<title>Forma&#45;&gt;Typus</title>
<path fill="none" stroke="#8e44ad" stroke-width="1.2" d="M557.83,-119.62C533.07,-116.08 507.99,-110.96 498,-104 481.85,-92.75 471.35,-72.48 465.36,-57.36"/>
<polygon fill="#8e44ad" stroke="#8e44ad" stroke-width="1.2" points="467.09,-56.52 463.35,-52.05 463.49,-57.88 467.09,-56.52"/>
</g>
</g>
</svg>
